<?xml version="1.0" encoding="UTF-8" standalone="no"?>
<!-- Created with Inkscape (http://www.inkscape.org/) -->

<svg
   width="348.02576mm"
   height="63.969982mm"
   viewBox="0 0 348.02576 63.969982"
   version="1.1"
   id="svg1"
   xml:space="preserve"
   xmlns:inkscape="http://www.inkscape.org/namespaces/inkscape"
   xmlns:sodipodi="http://sodipodi.sourceforge.net/DTD/sodipodi-0.dtd"
   xmlns="http://www.w3.org/2000/svg"
   xmlns:svg="http://www.w3.org/2000/svg"><sodipodi:namedview
     id="namedview1"
     pagecolor="#ffffff"
     bordercolor="#000000"
     borderopacity="0.25"
     inkscape:showpageshadow="2"
     inkscape:pageopacity="0.0"
     inkscape:pagecheckerboard="0"
     inkscape:deskcolor="#d1d1d1"
     inkscape:document-units="mm"><inkscape:page
       x="-1.7928865e-21"
       y="0"
       width="348.02576"
       height="63.969982"
       id="page2"
       margin="0"
       bleed="0" /></sodipodi:namedview><defs
     id="defs1" /><g
     inkscape:label="Layer 1"
     inkscape:groupmode="layer"
     id="layer1"
     transform="translate(-234.91758,-125.81363)"><path
       id="path2"
       style="fill:#018bfd;fill-opacity:1;stroke-width:0.264583"
       d="m 574.43433,125.82614 c -2.69874,-0.14114 -5.47316,0.90762 -7.39024,3.31401 -4.36359,5.47731 -1.00657,13.664 5.93039,14.46216 6.47512,0.74501 11.55129,-5.4913 9.51208,-11.68662 -1.23738,-3.75926 -4.58242,-5.90809 -8.05223,-6.08955 z m -0.84439,1.79679 c 1.90511,-0.12486 3.88481,0.51137 5.4498,2.07636 4.16424,4.16423 1.76356,11.25471 -4.09226,12.08711 -4.56777,0.64929 -8.61594,-3.38356 -7.99641,-7.96592 0.49571,-3.66654 3.46369,-5.98946 6.63887,-6.19755 z m -3.49798,2.24224 v 4.66328 4.66276 h 1.19735 1.19786 v -1.76371 -1.76372 l 0.58962,0.0139 c 1.13324,0.0266 1.22845,0.12322 2.29857,2.32389 l 0.57723,1.18701 1.27951,0.002 c 0.7036,8e-4 1.27951,-0.006 1.27951,-0.015 0,-0.0824 -1.52749,-3.08853 -1.69913,-3.34398 -0.29474,-0.43868 -0.60724,-0.7278 -0.95704,-0.88521 l -0.27389,-0.12299 0.27647,-0.11163 c 1.83482,-0.74182 2.05361,-3.51332 0.34727,-4.40024 -0.76845,-0.39946 -1.18034,-0.44597 -3.93775,-0.44597 z m 2.39521,1.73478 0.80718,0.015 c 1.34765,0.0247 1.65826,0.26945 1.61696,1.27589 -0.0238,0.58091 -0.22294,0.87415 -0.69712,1.02578 -0.13726,0.0439 -0.38258,0.0636 -0.95601,0.0765 l -0.77101,0.0171 v -1.20509 z m -225.2462,2.29288 c -3.36074,-0.0938 -6.76941,0.26183 -10.09964,0.78496 -2.28963,0.35968 -4.44484,1.38031 -6.27197,2.96985 -3.0226,2.62956 -3.77254,6.18494 -3.89744,9.87381 -0.0922,2.72297 0.18999,5.4748 0.5054,8.19072 0.3666,3.15657 2.03754,5.60751 4.9475,6.89467 2.46865,1.09194 5.075,1.90305 7.67033,2.6696 2.76805,0.81755 5.61946,1.35319 8.38605,2.17506 1.60818,0.47774 2.98725,1.37959 3.05615,3.37964 0.0584,1.69476 0.32205,3.39749 0.21652,5.07928 -0.16467,2.62458 -1.47496,4.14459 -3.77651,4.45037 -4.77301,0.63416 -9.52678,0.41602 -14.22498,-0.67282 -1.97474,-0.45765 -3.93479,-0.97832 -5.90093,-1.4702 -0.62638,2.89576 -1.22632,5.67027 -1.80919,8.36487 0.459,0.16294 0.70287,0.23958 0.93896,0.33538 3.96044,1.60712 8.128,2.45936 12.34653,2.6572 3.99807,0.1875 8.03113,0.33879 12.03596,-0.42737 3.017,-0.57716 5.70906,-1.67458 8.03724,-3.83077 0.40728,-0.61298 0.78709,-1.12937 1.10846,-1.68 1.47625,-2.52944 1.7227,-5.36786 1.82676,-8.18245 0.0903,-2.4407 0.007,-4.90982 -0.26768,-7.33598 -0.28688,-2.53226 -1.09543,-4.83759 -3.40341,-6.45956 -2.07585,-1.45883 -4.38316,-2.2503 -6.73499,-2.9471 -3.58143,-1.06112 -7.22691,-1.90578 -10.81071,-2.95951 -1.76507,-0.51898 -3.38479,-1.35141 -3.43339,-3.60805 -0.0367,-1.70205 -0.26802,-3.41538 -0.13384,-5.1015 0.15095,-1.89683 1.30278,-3.20617 3.18741,-3.67626 0.86763,-0.21637 1.79217,-0.26715 2.69234,-0.27905 2.51326,-0.0331 5.03222,-0.1042 7.53907,0.0284 1.83764,0.0972 3.66078,0.48426 5.48804,0.75758 1.24584,0.18636 2.48758,0.39947 3.67626,0.59169 0.40151,-3.04833 0.77131,-5.85426 1.1591,-8.79843 -1.05566,-0.17968 -2.09436,-0.39575 -3.14347,-0.52762 -3.63396,-0.4568 -7.26428,-1.14464 -10.90993,-1.24643 z m -47.74334,0.0656 c -1.23745,0.003 -2.4751,0.0604 -3.69952,0.17105 -2.41014,0.21782 -4.84804,0.62446 -7.15977,1.32446 -3.88641,1.17682 -6.81846,3.63053 -8.68732,7.32876 -1.23468,2.44326 -1.6381,5.06349 -1.68,7.70444 -0.1056,6.65317 -0.0787,13.30947 -0.0109,19.96363 0.0229,2.24723 0.16792,4.51825 0.53847,6.73138 0.73573,4.3941 3.13184,7.68032 7.08381,9.818 6.15676,3.3303 12.80056,3.06522 19.37401,2.2841 4.51333,-0.53631 8.61765,-2.44043 11.5502,-6.35723 h 5.2e-4 c 1.80393,-2.90564 2.75284,-5.93112 2.72334,-9.29969 -0.0634,-7.22723 -0.004,-14.45525 -0.0315,-21.68292 -0.006,-1.65186 -0.10318,-3.30899 -0.26562,-4.95319 -0.29091,-2.94467 -1.57773,-5.48815 -3.57652,-7.60625 -3.35928,-3.5598 -7.77996,-4.84065 -12.46022,-5.26531 -1.22434,-0.1109 -2.46156,-0.16379 -3.699,-0.16123 z m 248.59413,0.6196 c -1.14546,-0.0296 -1.7825,0.32525 -2.37919,1.29346 -3.84038,6.2314 -7.73803,12.42754 -11.63288,18.62522 -1.17914,1.87632 -2.42628,3.71017 -3.60753,5.58519 -0.56378,0.89477 -0.87713,1.75324 -0.0393,2.78794 0.96044,1.18613 1.70184,2.54949 2.54351,3.83233 4.20806,6.41396 8.6256,12.70424 12.5181,19.30424 1.43169,2.42752 2.90002,3.06298 5.42912,2.8882 2.82647,-0.1953 5.6766,-0.045 8.51473,-0.045 0,-0.23923 0.0341,-0.34581 -0.005,-0.40411 -5.83639,-8.76514 -11.66717,-17.53443 -17.54415,-26.2723 -0.40437,-0.60119 -0.35843,-0.85735 0.0176,-1.43712 3.77661,-5.82327 7.49747,-11.68254 11.30525,-17.60099 1.79829,-2.83117 3.5253,-5.59333 5.35833,-8.52506 -3.63222,0 -7.05735,0.0565 -10.47894,-0.032 z m -313.17417,0.032 v 54.16517 h 10.29033 v -17.38809 h 7.89254 c 3.5669,0.0128 7.01343,0.16077 10.37094,-0.79582 6.18775,-1.76295 9.13239,-5.11717 9.63456,-10.97814 0.41367,-4.82822 0.14933,-9.75228 -0.24857,-14.59807 -0.22652,-2.7587 -1.62182,-5.20772 -3.99924,-7.02231 -3.6,-2.74774 -7.81239,-3.22628 -12.04526,-3.3352 -6.8744,-0.17692 -13.75648,-0.0475 -20.63543,-0.0475 z m 135.46873,0 v 53.975 c 9.08557,0 18.09608,0.0883 27.10326,-0.0538 2.68177,-0.0423 5.10157,-1.3105 7.11016,-3.15794 2.61775,-2.40773 3.40099,-5.59865 3.51348,-8.96121 0.0817,-2.44126 -0.14251,-4.89269 -0.23151,-7.33961 -0.15233,-4.18614 -3.47692,-7.68453 -7.53701,-8.39535 4.34444,-1.65931 5.92444,-4.99709 5.91644,-9.18083 -0.005,-2.90841 -0.16282,-5.83664 -0.53795,-8.71885 -0.41362,-3.17808 -2.45383,-5.28082 -5.30976,-6.56549 -2.96251,-1.33261 -6.14349,-1.55439 -9.3338,-1.59319 -3.26238,-0.0399 -6.52568,-0.009 -9.92084,-0.009 z m 57.73653,0.031 c -0.75508,2.41118 -1.4965,4.79412 -2.24741,7.17373 -2.02964,6.43199 -4.04996,12.86666 -6.09937,19.29236 -1.64951,5.17181 -3.33583,10.33224 -5.01054,15.60732 -1.24873,4.06984 -2.49295,8.02948 -3.76308,12.07264 h 11.08666 c 1.11195,-3.64998 2.2319,-7.32664 3.3662,-11.04997 6.36898,0 12.71529,-0.0113 19.06086,0.0331 0.31557,0.002 0.80407,0.4289 0.91415,0.75758 1.14265,3.41107 2.22414,6.84274 3.32125,10.26449 h 11.06392 c -5.72671,-18.10619 -11.42628,-36.12683 -17.12712,-54.15122 z m 89.82604,0.0279 v 53.59931 h 5.2e-4 c 0.1587,0.27875 0.31606,0.56021 0.47542,0.56121 3.33777,0.0252 6.67565,0.0191 10.04952,0.0191 v -54.17964 z m -17.99115,0.0129 v 13.40797 c 0,4.40854 0.007,8.81703 -0.003,13.22555 -0.01,4.37923 0.0437,8.7608 -0.0331,13.13821 -0.14232,0.004 -0.28501,0.009 -0.42736,0.0129 -2.49478,-5.02869 -4.98931,-10.05753 -7.54528,-15.16807 h 5.2e-4 c -4.17793,-8.296 -8.2944,-16.51018 -12.34757,-24.59746 H 465.6488 v 54.0613 h 10.35182 V 149.4375 c 0.1177,-0.0326 0.23526,-0.0651 0.35295,-0.0977 6.58539,13.1583 13.17118,26.31649 19.73626,39.43428 h 14.1149 v -54.0923 z m -202.04554,8.42584 c 2.30382,-0.13246 4.60308,0.16982 6.85177,1.00769 2.31491,0.86254 4.12909,3.18906 4.16099,5.63945 0.095,7.29492 0.22396,14.58989 0.22996,21.88497 10e-4,1.46678 -0.30951,2.99009 -0.77411,4.38836 -0.7722,2.32404 -2.697,3.44899 -4.97748,3.92224 -3.3376,0.69263 -6.6791,0.83653 -9.96218,-0.3483 h -5.2e-4 c -3.56209,-1.4351 -4.53488,-3.68863 -4.58008,-6.48849 -0.12099,-7.49165 -0.15093,-14.98877 0.002,-22.47925 0.0851,-4.16525 2.27697,-6.45505 6.74584,-7.2533 0.76717,-0.13704 1.53579,-0.22922 2.30374,-0.27337 z m 82.77737,0.50126 c 4.01899,0 8.03295,-0.14687 12.02666,0.0718 1.60314,0.0878 2.62971,1.46022 2.92023,3.15123 v 5.2e-4 c 0.006,2.36281 0.19094,4.54419 -0.18242,6.62543 -0.49044,2.73401 -1.82669,3.77999 -4.57026,3.87729 -3.37426,0.1196 -6.75628,0.0284 -10.19421,0.0284 z m -135.52661,0.2682 c 3.72869,0 7.41226,-0.0742 11.08976,0.0408 1.24375,0.0389 2.4957,0.48344 3.70159,0.87385 1.36608,0.44226 2.12344,1.465 2.43447,2.88561 0.77098,3.52122 0.7641,7.04087 0.0264,10.55284 -0.5818,2.7696 -2.71309,3.72946 -5.22966,3.84731 -3.94988,0.18498 -7.91481,0.0491 -12.02252,0.0491 v -4.36614 z m 190.39458,0.49041 c 2.34139,8.0766 4.68263,16.15329 7.06572,24.37371 h -10.53062 -4.06229 c 2.41878,-8.16343 4.81891,-16.26442 7.2192,-24.36544 0.10261,-0.003 0.20536,-0.005 0.30799,-0.008 z m -53.79052,21.46639 c 3.65838,-0.005 7.31923,-0.0777 10.9735,0.045 1.0352,0.0347 2.05104,0.64582 3.07578,0.99271 0.27323,0.25941 0.40465,0.37798 0.5209,0.51004 1.68294,1.91172 1.90489,9.44451 0.11368,11.22412 -0.80108,0.79589 -2.13879,1.35973 -3.27835,1.44953 -3.35785,0.26452 -6.73809,0.24294 -10.10998,0.32504 -0.74793,0.0186 -1.49666,0.003 -2.33887,0.003 v -14.49472 c 0.29299,-0.0161 0.66807,-0.0537 1.04334,-0.0543 z" /></g></svg>
